<svg width="162" height="52" viewBox="0 0 162 52" fill="none" xmlns="http://www.w3.org/2000/svg">
<path d="M27.457 13.9453L42.1523 48.9258L41.0625 51.668H40.3242L31.2539 30.1875L24.4688 45.7617L10.4414 13.9453C10.582 13.9219 11.7539 13.875 13.957 13.8047L15.5039 13.6992L17.7539 13.5234V14.1562C16.2773 14.7422 15.5391 15.6562 15.5391 16.8984C15.5391 18.1406 16.1133 20.0625 17.2617 22.6641L24.4688 39.0469L29.8477 26.8477L27.6328 21.5742C26.6484 19.207 25.6992 17.5195 24.7852 16.5117C23.8945 15.5039 22.5703 14.7188 20.8125 14.1562V13.5234C23.1328 13.7578 25.3477 13.8984 27.457 13.9453ZM7.52344 13.9453L23.0273 48.9609L21.7969 51.668H21.1992L8.05078 21.9258C6.01172 17.332 3.67969 14.7422 1.05469 14.1562V13.5234C2.29688 13.7109 4.45312 13.8516 7.52344 13.9453ZM36.9492 22.9805L43.5234 38.7305L49.0781 25.1953C50.3203 22.1719 50.9414 19.8398 50.9414 18.1992C50.9414 16.0195 49.9102 14.6719 47.8477 14.1562V13.5234C50.4492 13.8047 52.3477 13.9453 53.543 13.9453C55.6523 13.9453 57.7031 13.8047 59.6953 13.5234V14.1562C58.0547 15.0937 56.7539 16.2188 55.793 17.5312C54.7852 18.9141 53.5312 21.4102 52.0312 25.0195L43.5234 45.6562L30.2344 13.9453C33.0938 13.8281 35.5898 13.6875 37.7227 13.5234V14.1562C36.1289 14.6953 35.332 15.6797 35.332 17.1094C35.332 18.4453 35.8711 20.4023 36.9492 22.9805ZM64.2305 38.8008H65.0391C65.2031 41.8008 66.4102 44.2734 68.6602 46.2188C70.8633 48.1406 73.3945 49.1016 76.2539 49.1016C78.457 49.1016 80.25 48.4805 81.6328 47.2383C83.0156 45.9961 83.707 44.5078 83.707 42.7734C83.707 40.9453 83.0391 39.5273 81.7031 38.5195C80.4141 37.5352 77.8711 36.4219 74.0742 35.1797C71.0273 34.1719 68.8594 33.3398 67.5703 32.6836C66.0703 31.9102 64.8984 30.8672 64.0547 29.5547C63.1406 28.2188 62.6836 26.7188 62.6836 25.0547C62.6836 23.2031 63.3047 21.3867 64.5469 19.6055C64.2656 20.5195 64.125 21.3164 64.125 21.9961C64.125 23.8242 64.5586 25.4297 65.4258 26.8125C66.3164 28.2422 67.418 29.3203 68.7305 30.0469C70.043 30.7969 72.2344 31.6523 75.3047 32.6133C79.3125 33.832 82.207 35.1797 83.9883 36.6562C85.6992 38.0859 86.5547 40.0078 86.5547 42.4219C86.5547 44.7891 85.6641 46.9336 83.8828 48.8555C82.0781 50.8008 79.3828 51.7734 75.7969 51.7734C74.3438 51.7734 72.3281 51.5039 69.75 50.9648C67.5 50.4961 65.8125 50.25 64.6875 50.2266L64.4414 49.9453C64.4648 49.5469 64.4766 49.0312 64.4766 48.3984C64.4766 47.6484 64.4062 46.4883 64.2656 44.918C64.1484 43.3477 64.0898 42.1758 64.0898 41.4023C64.0898 40.3945 64.1367 39.5273 64.2305 38.8008ZM89.0508 24.1055H88.3125C88.2891 21.3867 87.2109 19.3711 85.0781 18.0586C82.9922 16.7695 80.4609 16.125 77.4844 16.125C75.1172 16.125 73.1719 16.6289 71.6484 17.6367C70.1016 18.6445 69.3281 19.8516 69.3281 21.2578C69.3281 22.7578 69.9375 23.9414 71.1562 24.8086C72.4219 25.7461 74.918 26.8594 78.6445 28.1484C82.1133 29.3438 84.5391 30.3164 85.9219 31.0664C87.3984 31.8867 88.6289 33.0586 89.6133 34.582C90.5977 36.1523 91.0898 37.8984 91.0898 39.8203C91.0898 42.75 90.0117 45.0469 87.8555 46.7109C88.6523 45.6094 89.0508 44.0625 89.0508 42.0703C89.0508 40.1953 88.6172 38.5312 87.75 37.0781C86.8359 35.6016 85.7109 34.4297 84.375 33.5625C83.0156 32.6719 80.8008 31.7227 77.7305 30.7148C73.1133 29.1914 70.1016 27.8906 68.6953 26.8125C67.2891 25.7109 66.5859 24 66.5859 21.6797C66.5859 19.0078 67.6641 16.9102 69.8203 15.3867C71.9766 13.9102 75.0352 13.1719 78.9961 13.1719C81.6914 13.1719 84.9844 13.6406 88.875 14.5781V14.8242L88.9453 16.1602C88.9453 16.8633 88.9688 17.707 89.0156 18.6914C89.0859 19.8867 89.1211 20.9414 89.1211 21.8555C89.1211 22.4648 89.0977 23.2148 89.0508 24.1055Z" fill="#2D3436"/>
<path d="M103.245 21.9658L103.491 23.6533L103.852 22.1328L106.383 13.2031H107.807L110.276 22.1328L110.628 23.6797L110.9 21.957L112.887 13.2031H114.583L111.48 26H109.942L107.306 16.6748L107.104 15.6992L106.901 16.6748L104.168 26H102.63L99.5361 13.2031H101.224L103.245 21.9658ZM119.874 26.1758C118.585 26.1758 117.536 25.7539 116.728 24.9102C115.919 24.0605 115.515 22.9268 115.515 21.5088V21.21C115.515 20.2666 115.693 19.4258 116.051 18.6875C116.414 17.9434 116.918 17.3633 117.562 16.9473C118.213 16.5254 118.916 16.3145 119.672 16.3145C120.908 16.3145 121.869 16.7217 122.555 17.5361C123.24 18.3506 123.583 19.5166 123.583 21.0342V21.7109H117.141C117.164 22.6484 117.437 23.4072 117.958 23.9873C118.485 24.5615 119.153 24.8486 119.962 24.8486C120.536 24.8486 121.022 24.7314 121.421 24.4971C121.819 24.2627 122.168 23.9521 122.467 23.5654L123.46 24.3389C122.663 25.5635 121.468 26.1758 119.874 26.1758ZM119.672 17.6504C119.016 17.6504 118.465 17.8906 118.02 18.3711C117.574 18.8457 117.299 19.5137 117.193 20.375H121.957V20.252C121.91 19.4258 121.688 18.7871 121.289 18.3359C120.891 17.8789 120.352 17.6504 119.672 17.6504ZM133.523 21.3506C133.523 22.8037 133.189 23.9727 132.521 24.8574C131.854 25.7363 130.957 26.1758 129.832 26.1758C128.631 26.1758 127.702 25.751 127.046 24.9014L126.967 26H125.473V12.5H127.099V17.5361C127.755 16.7217 128.66 16.3145 129.814 16.3145C130.969 16.3145 131.874 16.751 132.53 17.624C133.192 18.4971 133.523 19.6924 133.523 21.21V21.3506ZM131.897 21.166C131.897 20.0586 131.684 19.2031 131.256 18.5996C130.828 17.9961 130.213 17.6943 129.41 17.6943C128.338 17.6943 127.567 18.1924 127.099 19.1885V23.3018C127.597 24.2979 128.373 24.7959 129.428 24.7959C130.207 24.7959 130.813 24.4941 131.247 23.8906C131.681 23.2871 131.897 22.3789 131.897 21.166ZM104.256 41.2959C102.809 40.8799 101.754 40.3701 101.092 39.7666C100.436 39.1572 100.107 38.4072 100.107 37.5166C100.107 36.5088 100.509 35.6768 101.312 35.0205C102.12 34.3584 103.169 34.0273 104.458 34.0273C105.337 34.0273 106.119 34.1973 106.805 34.5371C107.496 34.877 108.029 35.3457 108.404 35.9434C108.785 36.541 108.976 37.1943 108.976 37.9033H107.279C107.279 37.1299 107.033 36.5234 106.541 36.084C106.049 35.6387 105.354 35.416 104.458 35.416C103.626 35.416 102.976 35.6006 102.507 35.9697C102.044 36.333 101.812 36.8398 101.812 37.4902C101.812 38.0117 102.032 38.4541 102.472 38.8174C102.917 39.1748 103.67 39.5029 104.73 39.8018C105.797 40.1006 106.629 40.4316 107.227 40.7949C107.83 41.1523 108.275 41.5713 108.562 42.0518C108.855 42.5322 109.002 43.0977 109.002 43.748C109.002 44.7852 108.598 45.6172 107.789 46.2441C106.98 46.8652 105.899 47.1758 104.546 47.1758C103.667 47.1758 102.847 47.0088 102.085 46.6748C101.323 46.335 100.734 45.8721 100.318 45.2861C99.9082 44.7002 99.7031 44.0352 99.7031 43.291H101.399C101.399 44.0645 101.684 44.6768 102.252 45.1279C102.826 45.5732 103.591 45.7959 104.546 45.7959C105.437 45.7959 106.119 45.6143 106.594 45.251C107.068 44.8877 107.306 44.3926 107.306 43.7656C107.306 43.1387 107.086 42.6553 106.646 42.3154C106.207 41.9697 105.41 41.6299 104.256 41.2959ZM113.124 35.1875V37.4902H114.899V38.7471H113.124V44.6445C113.124 45.0254 113.203 45.3125 113.361 45.5059C113.52 45.6934 113.789 45.7871 114.17 45.7871C114.357 45.7871 114.615 45.752 114.943 45.6816V47C114.516 47.1172 114.1 47.1758 113.695 47.1758C112.969 47.1758 112.421 46.9561 112.052 46.5166C111.683 46.0771 111.498 45.4531 111.498 44.6445V38.7471H109.767V37.4902H111.498V35.1875H113.124ZM122.678 46.0596C122.045 46.8037 121.116 47.1758 119.892 47.1758C118.878 47.1758 118.104 46.8828 117.571 46.2969C117.044 45.7051 116.777 44.832 116.771 43.6777V37.4902H118.397V43.6338C118.397 45.0752 118.983 45.7959 120.155 45.7959C121.397 45.7959 122.224 45.333 122.634 44.4072V37.4902H124.26V47H122.713L122.678 46.0596ZM126.343 42.166C126.343 40.707 126.688 39.5352 127.38 38.6504C128.071 37.7598 128.977 37.3145 130.096 37.3145C131.209 37.3145 132.091 37.6953 132.741 38.457V33.5H134.367V47H132.873L132.794 45.9805C132.144 46.7773 131.238 47.1758 130.078 47.1758C128.977 47.1758 128.077 46.7246 127.38 45.8223C126.688 44.9199 126.343 43.7422 126.343 42.2891V42.166ZM127.969 42.3506C127.969 43.4287 128.191 44.2725 128.637 44.8818C129.082 45.4912 129.697 45.7959 130.482 45.7959C131.514 45.7959 132.267 45.333 132.741 44.4072V40.0391C132.255 39.1426 131.508 38.6943 130.5 38.6943C129.703 38.6943 129.082 39.002 128.637 39.6172C128.191 40.2324 127.969 41.1436 127.969 42.3506ZM140.845 47.1758C139.556 47.1758 138.507 46.7539 137.698 45.9102C136.89 45.0605 136.485 43.9268 136.485 42.5088V42.21C136.485 41.2666 136.664 40.4258 137.021 39.6875C137.385 38.9434 137.889 38.3633 138.533 37.9473C139.184 37.5254 139.887 37.3145 140.643 37.3145C141.879 37.3145 142.84 37.7217 143.525 38.5361C144.211 39.3506 144.554 40.5166 144.554 42.0342V42.7109H138.111C138.135 43.6484 138.407 44.4072 138.929 44.9873C139.456 45.5615 140.124 45.8486 140.933 45.8486C141.507 45.8486 141.993 45.7314 142.392 45.4971C142.79 45.2627 143.139 44.9521 143.438 44.5654L144.431 45.3389C143.634 46.5635 142.438 47.1758 140.845 47.1758ZM140.643 38.6504C139.986 38.6504 139.436 38.8906 138.99 39.3711C138.545 39.8457 138.27 40.5137 138.164 41.375H142.928V41.252C142.881 40.4258 142.658 39.7871 142.26 39.3359C141.861 38.8789 141.322 38.6504 140.643 38.6504ZM147.981 37.4902L148.034 38.6855C148.761 37.7715 149.71 37.3145 150.882 37.3145C152.892 37.3145 153.905 38.4482 153.923 40.7158V47H152.297V40.707C152.291 40.0215 152.133 39.5146 151.822 39.1865C151.518 38.8584 151.04 38.6943 150.39 38.6943C149.862 38.6943 149.399 38.835 149.001 39.1162C148.603 39.3975 148.292 39.7666 148.069 40.2236V47H146.443V37.4902H147.981ZM158.581 35.1875V37.4902H160.356V38.7471H158.581V44.6445C158.581 45.0254 158.66 45.3125 158.818 45.5059C158.977 45.6934 159.246 45.7871 159.627 45.7871C159.814 45.7871 160.072 45.752 160.4 45.6816V47C159.973 47.1172 159.557 47.1758 159.152 47.1758C158.426 47.1758 157.878 46.9561 157.509 46.5166C157.14 46.0771 156.955 45.4531 156.955 44.6445V38.7471H155.224V37.4902H156.955V35.1875H158.581Z" fill="#2D3436"/>
</svg>
